<svg width="104" height="17" viewBox="0 0 104 17" fill="none" xmlns="http://www.w3.org/2000/svg">
<path d="M7.38263 2.25531C7.59596 1.69265 8.40329 1.69265 8.61729 2.25531L9.99729 6.07798C10.094 6.33131 10.34 6.49998 10.6146 6.49998H14.006C14.6326 6.49998 14.906 7.27998 14.4133 7.66198L12 9.83331C11.8919 9.91642 11.8129 10.0316 11.7743 10.1624C11.7357 10.2932 11.7396 10.4328 11.7853 10.5613L12.6666 14.2966C12.8813 14.8966 12.1866 15.412 11.6613 15.0426L8.38329 12.9626C8.27103 12.8838 8.13717 12.8414 7.99996 12.8414C7.86275 12.8414 7.72888 12.8838 7.61663 12.9626L4.33863 15.0426C3.81396 15.412 3.11863 14.896 3.33329 14.2966L4.21463 10.5613C4.26034 10.4328 4.2642 10.2932 4.22563 10.1624C4.18707 10.0316 4.10806 9.91642 3.99996 9.83331L1.58663 7.66198C1.09329 7.27998 1.36796 6.49998 1.99329 6.49998H5.38463C5.51815 6.50042 5.64867 6.46032 5.7589 6.38496C5.86914 6.30961 5.9539 6.20256 6.00196 6.07798L7.38196 2.25531H7.38263Z" fill="#F7AB3A" stroke="#F7AB3A" stroke-width="0.5" stroke-linecap="round" stroke-linejoin="round"/>
<path d="M29.3826 2.25531C29.596 1.69265 30.4033 1.69265 30.6173 2.25531L31.9973 6.07798C32.094 6.33131 32.34 6.49998 32.6146 6.49998H36.006C36.6326 6.49998 36.906 7.27998 36.4133 7.66198L34 9.83331C33.8919 9.91642 33.8129 10.0316 33.7743 10.1624C33.7357 10.2932 33.7396 10.4328 33.7853 10.5613L34.6666 14.2966C34.8813 14.8966 34.1866 15.412 33.6613 15.0426L30.3833 12.9626C30.271 12.8838 30.1372 12.8414 30 12.8414C29.8628 12.8414 29.7289 12.8838 29.6166 12.9626L26.3386 15.0426C25.814 15.412 25.1186 14.896 25.3333 14.2966L26.2146 10.5613C26.2603 10.4328 26.2642 10.2932 26.2256 10.1624C26.1871 10.0316 26.1081 9.91642 26 9.83331L23.5866 7.66198C23.0933 7.27998 23.368 6.49998 23.9933 6.49998H27.3846C27.5182 6.50042 27.6487 6.46032 27.7589 6.38496C27.8691 6.30961 27.9539 6.20256 28.002 6.07798L29.382 2.25531H29.3826Z" fill="#F7AB3A"/>
<path d="M51.3826 2.25531C51.596 1.69265 52.4033 1.69265 52.6173 2.25531L53.9973 6.07798C54.094 6.33131 54.34 6.49998 54.6146 6.49998H58.006C58.6326 6.49998 58.906 7.27998 58.4133 7.66198L56 9.83331C55.8919 9.91642 55.8129 10.0316 55.7743 10.1624C55.7357 10.2932 55.7396 10.4328 55.7853 10.5613L56.6666 14.2966C56.8813 14.8966 56.1866 15.412 55.6613 15.0426L52.3833 12.9626C52.271 12.8838 52.1372 12.8414 52 12.8414C51.8628 12.8414 51.7289 12.8838 51.6166 12.9626L48.3386 15.0426C47.814 15.412 47.1186 14.896 47.3333 14.2966L48.2146 10.5613C48.2604 10.4328 48.2642 10.2932 48.2256 10.1624C48.1871 10.0316 48.1081 9.91642 48 9.83331L45.5866 7.66198C45.0933 7.27998 45.368 6.49998 45.9933 6.49998H49.3846C49.5182 6.50042 49.6487 6.46032 49.7589 6.38496C49.8692 6.30961 49.9539 6.20256 50.002 6.07798L51.382 2.25531H51.3826Z" fill="#F7AB3A"/>
<path d="M73.3826 2.25531C73.596 1.69265 74.4033 1.69265 74.6173 2.25531L75.9973 6.07798C76.094 6.33131 76.34 6.49998 76.6146 6.49998H80.006C80.6326 6.49998 80.906 7.27998 80.4133 7.66198L78 9.83331C77.8919 9.91642 77.8129 10.0316 77.7743 10.1624C77.7357 10.2932 77.7396 10.4329 77.7853 10.5613L78.6666 14.2966C78.8813 14.8966 78.1866 15.412 77.6613 15.0426L74.3833 12.9626C74.271 12.8838 74.1372 12.8414 74 12.8414C73.8628 12.8414 73.7289 12.8838 73.6166 12.9626L70.3386 15.0426C69.814 15.412 69.1186 14.896 69.3333 14.2966L70.2146 10.5613C70.2604 10.4329 70.2642 10.2932 70.2256 10.1624C70.1871 10.0316 70.1081 9.91642 70 9.83331L67.5866 7.66198C67.0933 7.27998 67.368 6.49998 67.9933 6.49998H71.3846C71.5182 6.50042 71.6487 6.46032 71.7589 6.38496C71.8692 6.30961 71.9539 6.20256 72.002 6.07798L73.382 2.25531H73.3826Z" stroke="#C4CDD5" stroke-width="0.5" stroke-linecap="round" stroke-linejoin="round"/>
<path d="M95.3826 2.25531C95.596 1.69265 96.4033 1.69265 96.6173 2.25531L97.9973 6.07798C98.094 6.33131 98.34 6.49998 98.6146 6.49998H102.006C102.633 6.49998 102.906 7.27998 102.413 7.66198L100 9.83331C99.8919 9.91642 99.8129 10.0316 99.7743 10.1624C99.7357 10.2932 99.7396 10.4329 99.7853 10.5613L100.667 14.2966C100.881 14.8966 100.187 15.412 99.6613 15.0426L96.3833 12.9626C96.271 12.8838 96.1372 12.8414 96 12.8414C95.8628 12.8414 95.7289 12.8838 95.6166 12.9626L92.3386 15.0426C91.814 15.412 91.1186 14.896 91.3333 14.2966L92.2146 10.5613C92.2604 10.4329 92.2642 10.2932 92.2256 10.1624C92.1871 10.0316 92.1081 9.91642 92 9.83331L89.5866 7.66198C89.0933 7.27998 89.368 6.49998 89.9933 6.49998H93.3846C93.5182 6.50042 93.6487 6.46032 93.7589 6.38496C93.8692 6.30961 93.9539 6.20256 94.002 6.07798L95.382 2.25531H95.3826Z" stroke="#C4CDD5" stroke-width="0.5" stroke-linecap="round" stroke-linejoin="round"/>
</svg>
